<?xml version="1.0" encoding="UTF-8" standalone="no"?>
<svg
   version="1.1"
   x="0px"
   y="0px"
   viewBox="0 0 1122.5197 793.7008"
   enable-background="new 0 0 96 96"
   xml:space="preserve"
   id="svg6"
   sodipodi:docname="logo-anthology-of-data-science.svg"
   width="297mm"
   height="210mm"
   inkscape:export-filename="logo-anthology-of-data-science.png"
   inkscape:export-xdpi="150"
   inkscape:export-ydpi="150"
   inkscape:version="1.4 (e7c3feb1, 2024-10-09)"
   xmlns:inkscape="http://www.inkscape.org/namespaces/inkscape"
   xmlns:sodipodi="http://sodipodi.sourceforge.net/DTD/sodipodi-0.dtd"
   xmlns="http://www.w3.org/2000/svg"
   xmlns:svg="http://www.w3.org/2000/svg"><defs
     id="defs6" /><sodipodi:namedview
     id="namedview6"
     pagecolor="#ffffff"
     bordercolor="#000000"
     borderopacity="0.25"
     inkscape:showpageshadow="2"
     inkscape:pageopacity="0.0"
     inkscape:pagecheckerboard="0"
     inkscape:deskcolor="#d1d1d1"
     inkscape:zoom="1.0302765"
     inkscape:cx="456.18822"
     inkscape:cy="84.928658"
     inkscape:current-layer="svg6"
     inkscape:document-units="mm" /><polygon
     points="7.313,81.061 20.959,81.061 20.959,67.414 "
     id="polygon1"
     transform="matrix(2.1092313,0,0,1.8518012,209.30556,122.16296)"
     style="stroke-width:0.505989;fill:#000000" /><polygon
     points="22.459,81.061 26.244,81.061 26.244,36.67 22.459,36.67 22.459,63.793 "
     id="polygon2"
     transform="matrix(2.1092313,0,0,1.8518012,209.30556,122.16296)"
     style="stroke-width:0.505989;fill:#161616;fill-opacity:1" /><path
     d="m 326.90364,272.27181 h 26.37805 V 187.2908 149.83072 h -26.37805 z m 20.38995,-15.9792 h -14.12131 v -2.77769 h 14.12131 z m -14.39972,-10.28304 h 14.12129 v 2.7777 h -14.12129 z"
     id="path2"
     style="stroke-width:1;fill:#000000" /><polygon
     points="75.045,67.414 75.045,81.061 88.691,81.061 "
     id="polygon3"
     transform="matrix(2.1092313,0,0,1.8518012,209.30556,122.16296)"
     style="stroke-width:0.505989;fill:#000000" /><path
     d="m 269.19508,265.7331 25.86549,4.53506 27.31244,-120.06708 -25.8655,-4.53507 z m 23.55589,-12.16263 -13.84711,-2.42957 0.62012,-2.72399 13.8471,2.42956 z m 1.40053,-7.4072 -13.8471,-2.42957 0.62011,-2.724 13.8471,2.42956 z"
     id="path3"
     style="stroke-width:1;fill:#000000" /><polygon
     points="27.744,78.931 27.744,81.061 38.406,81.061 "
     id="polygon4"
     transform="matrix(2.1092313,0,0,1.8518012,209.30556,122.16296)"
     style="stroke-width:0.505989" /><polygon
     points="73.545,81.061 73.545,63.793 73.545,36.67 69.76,36.67 69.76,81.061 "
     id="polygon5"
     transform="matrix(2.1092313,0,0,1.8518012,209.30556,122.16296)"
     style="stroke-width:0.505989;fill:#161616;fill-opacity:1" /><text
     xml:space="preserve"
     style="font-weight:bold;font-size:77.3333px;font-family:'Mozilla Headline';-inkscape-font-specification:'Mozilla Headline Bold';text-align:start;letter-spacing:0px;writing-mode:lr-tb;direction:ltr;text-anchor:start;fill:#f7ec37;fill-opacity:1;stroke-width:0;stroke-miterlimit:5.3;paint-order:stroke fill markers"
     x="407.41605"
     y="271.96744"
     id="text3"><tspan
       sodipodi:role="line"
       style="font-size:77.3333px;fill:#151515;fill-opacity:1;stroke-width:0"
       x="407.41605"
       y="271.96744"
       id="tspan4">Data Science</tspan></text><text
     xml:space="preserve"
     style="font-weight:bold;font-size:77.3333px;font-family:'Mozilla Headline';-inkscape-font-specification:'Mozilla Headline Bold';text-align:start;letter-spacing:0px;writing-mode:lr-tb;direction:ltr;text-anchor:start;fill:#f7ec37;fill-opacity:1;stroke-width:0;stroke-miterlimit:5.3;paint-order:stroke fill markers"
     x="407.33868"
     y="203.21388"
     id="text3-4"><tspan
       sodipodi:role="line"
       style="font-size:77.3333px;fill:#151515;fill-opacity:1;stroke-width:0"
       x="407.33868"
       y="203.21388"
       id="tspan4-7">Anthology of</tspan></text></svg>
