<svg xmlns="http://www.w3.org/2000/svg" xmlns:xlink="http://www.w3.org/1999/xlink" version="1.1" x="0px" y="0px" viewBox="0 0 96 120" enable-background="new 0 0 96 96" xml:space="preserve"><polygon points="20.959,81.061 20.959,67.414 7.313,81.061 "/><polygon points="22.459,63.793 22.459,81.061 26.244,81.061 26.244,36.67 22.459,36.67 "/><path d="M55.754,81.061H68.26V35.17V14.941H55.754V81.061z M65.421,72.432h-6.695v-1.5h6.695V72.432z M58.594,66.879h6.695v1.5  h-6.695V66.879z"/><polygon points="75.045,81.061 88.691,81.061 75.045,67.414 "/><path d="M28.394,77.53l12.263,2.449l12.949-64.838l-12.263-2.449L28.394,77.53z M39.562,70.962l-6.565-1.312l0.294-1.471  l6.565,1.312L39.562,70.962z M40.226,66.962l-6.565-1.312l0.294-1.471l6.565,1.312L40.226,66.962z"/><polygon points="27.744,81.061 38.406,81.061 27.744,78.931 "/><polygon points="69.76,81.061 73.545,81.061 73.545,63.793 73.545,36.67 69.76,36.67 "/><text x="0" y="111" fill="#000000" font-size="5px" font-weight="bold" font-family="'Helvetica Neue', Helvetica, Arial-Unicode, Arial, Sans-serif">Created by glyph.faisalovers</text><text x="0" y="116" fill="#000000" font-size="5px" font-weight="bold" font-family="'Helvetica Neue', Helvetica, Arial-Unicode, Arial, Sans-serif">from the Noun Project</text></svg>